<svg width="32" height="32" viewBox="0 0 32 32" fill="none" xmlns="http://www.w3.org/2000/svg">
  <!-- Rocket/Growth Symbol -->
  <path d="M22 14L22 30C22 32.2091 20.2091 34 18 34L14 34C11.7909 34 10 32.2091 10 30L10 14C10 9.58172 13.5817 6 18 6L18 6C20.2091 6 22 7.79086 22 10L22 14Z" fill="url(#gradient1)" transform="scale(0.7) translate(6, 4)"/>
  
  <!-- Rocket Fins -->
  <path d="M10 20L6 24C5.44772 24 5 23.5523 5 23L5 21C5 20.4477 5.44772 20 6 20L10 20Z" fill="url(#gradient2)" transform="scale(0.7) translate(6, 4)"/>
  <path d="M22 20L26 24C26.5523 24 27 23.5523 27 23L27 21C27 20.4477 26.5523 20 26 20L22 20Z" fill="url(#gradient2)" transform="scale(0.7) translate(6, 4)"/>
  
  <!-- Rocket Window -->
  <circle cx="16" cy="16" r="2.1" fill="#FDFDFD" opacity="0.9"/>
  <circle cx="16" cy="16" r="1.05" fill="#1968FF"/>
  
  <!-- Flame/Trail -->
  <path d="M16 34L14 40C15.3333 39.3333 16.6667 39.3333 18 40L16 34Z" fill="url(#gradient3)" transform="scale(0.7) translate(6, 4)"/>
  
  <!-- Nation/Community Dots -->
  <circle cx="8" cy="10" r="1" fill="#1968FF" opacity="0.6"/>
  <circle cx="24" cy="12" r="1" fill="#1968FF" opacity="0.6"/>
  <circle cx="6" cy="16" r="0.7" fill="#1968FF" opacity="0.4"/>
  <circle cx="26" cy="18" r="0.7" fill="#1968FF" opacity="0.4"/>
  
  <defs>
    <linearGradient id="gradient1" x1="0%" y1="0%" x2="100%" y2="100%">
      <stop offset="0%" style="stop-color:#1968FF;stop-opacity:1" />
      <stop offset="100%" style="stop-color:#1968FF;stop-opacity:0.8" />
    </linearGradient>
    <linearGradient id="gradient2" x1="0%" y1="0%" x2="100%" y2="100%">
      <stop offset="0%" style="stop-color:#1968FF;stop-opacity:0.7" />
      <stop offset="100%" style="stop-color:#1968FF;stop-opacity:0.5" />
    </linearGradient>
    <linearGradient id="gradient3" x1="0%" y1="0%" x2="0%" y2="100%">
      <stop offset="0%" style="stop-color:#FF6B6B;stop-opacity:0.8" />
      <stop offset="50%" style="stop-color:#FFE66D;stop-opacity:0.6" />
      <stop offset="100%" style="stop-color:#FF6B6B;stop-opacity:0.4" />
    </linearGradient>
  </defs>
</svg> 